<svg width="72" height="72" viewBox="0 0 72 72" fill="none" xmlns="http://www.w3.org/2000/svg">
<rect width="72" height="72" fill="#EAF1FF"/>
<path d="M35.9999 57.9008C48.0954 57.9008 57.9008 48.0954 57.9008 35.9999C57.9008 23.9045 48.0954 14.0991 35.9999 14.0991C23.9045 14.0991 14.0991 23.9045 14.0991 35.9999C14.0991 48.0954 23.9045 57.9008 35.9999 57.9008Z" fill="#0355FF"/>
<path d="M32.4497 22.224C32.4497 21.8932 32.7179 21.625 33.0487 21.625H34.2466C34.5774 21.625 34.8455 21.8932 34.8455 22.224V26.5544C34.8455 26.8852 34.5774 27.1534 34.2466 27.1534H33.0487C32.7179 27.1534 32.4497 26.8852 32.4497 26.5544V22.224ZM37.2414 22.224C37.2414 21.8932 37.5096 21.625 37.8404 21.625H39.0383C39.3691 21.625 39.6372 21.8932 39.6372 22.224V26.5544C39.6372 26.8852 39.3691 27.1534 39.0383 27.1534H37.8404C37.5096 27.1534 37.2414 26.8852 37.2414 26.5544V22.224ZM32.4497 45.4457C32.4497 45.1149 32.7179 44.8467 33.0487 44.8467H34.2466C34.5774 44.8467 34.8455 45.1149 34.8455 45.4457V49.7761C34.8455 50.1069 34.5774 50.3751 34.2466 50.3751H33.0487C32.7179 50.3751 32.4497 50.1069 32.4497 49.7761V45.4457ZM37.2414 45.4457C37.2414 45.1149 37.5096 44.8467 37.8404 44.8467H39.0383C39.3691 44.8467 39.6372 45.1149 39.6372 45.4457V49.7761C39.6372 50.1069 39.3691 50.3751 39.0383 50.3751H37.8404C37.5096 50.3751 37.2414 50.1069 37.2414 49.7761V45.4457Z" fill="white"/>
<path d="M28.856 25.2188H36.8593C38.4429 25.2188 39.6241 25.2894 40.4039 25.432C41.1826 25.5745 41.8786 25.8704 42.4931 26.322C43.1076 26.7737 43.6191 27.3738 44.03 28.1237C44.4397 28.8736 44.6446 29.7145 44.6446 30.6465C44.6446 31.6564 44.3918 32.5836 43.8863 33.4257C43.3807 34.269 42.6955 34.9015 41.8306 35.3232C43.0513 35.7054 43.9881 36.3582 44.6434 37.2794C45.2998 38.2018 45.6268 39.2847 45.6268 40.5306C45.6268 41.5117 45.4148 42.4652 44.992 43.3912C44.5691 44.3172 43.9905 45.0587 43.2574 45.6122C42.5242 46.1668 41.621 46.507 40.5465 46.634C39.8732 46.713 38.2477 46.761 35.6709 46.7813H28.856V25.2188ZM32.8989 28.8077V33.7935H35.5475C37.1228 33.7935 38.1015 33.7695 38.4836 33.7204C39.176 33.6317 39.7199 33.3754 40.1164 32.9489C40.5129 32.5225 40.7106 31.9607 40.7106 31.2647C40.7106 30.5974 40.5405 30.056 40.1991 29.6391C39.8577 29.2222 39.3497 28.9694 38.6765 28.882C38.2752 28.8329 37.124 28.8089 35.2217 28.8089H32.8989V28.8077ZM32.8989 37.3824V43.148H36.6412C38.0979 43.148 39.0227 43.1037 39.4132 43.0163C40.0146 42.8989 40.5033 42.6126 40.8819 42.1562C41.2592 41.7009 41.4485 41.09 41.4485 40.3245C41.4485 39.6777 41.3036 39.1278 41.0113 38.6774C40.719 38.227 40.2985 37.8975 39.7487 37.6915C39.1976 37.4855 38.0021 37.3824 36.1633 37.3824H32.8989Z" fill="white"/>
</svg>
