<svg width="72" height="72" viewBox="0 0 72 72" fill="none" xmlns="http://www.w3.org/2000/svg">
<rect width="72" height="72" fill="#EAF1FF"/>
<path d="M36.0004 56.8788C48.0959 56.8788 57.9012 47.0735 57.9012 34.978C57.9012 22.8825 48.0959 13.0771 36.0004 13.0771C23.9049 13.0771 14.0996 22.8825 14.0996 34.978C14.0996 47.0735 23.9049 56.8788 36.0004 56.8788Z" fill="#0355FF"/>
<path d="M46.1041 27.3607L35.5005 41.5013C35.2646 41.8147 34.9643 42.0738 34.6199 42.2613C34.2754 42.4488 33.8948 42.5604 33.5036 42.5884C33.1124 42.6164 32.7198 42.5602 32.3521 42.4237C31.9844 42.2872 31.6503 42.0735 31.3722 41.797L25.897 36.3218" stroke="white" stroke-width="4" stroke-linecap="round" stroke-linejoin="round"/>
</svg>
